<?xml version="1.0" standalone="no"?><!DOCTYPE svg PUBLIC "-//W3C//DTD SVG 1.1//EN" "http://www.w3.org/Graphics/SVG/1.1/DTD/svg11.dtd"><svg t="1543493981557" class="icon" style="" viewBox="0 0 1024 1024" version="1.1" xmlns="http://www.w3.org/2000/svg" p-id="2018" xmlns:xlink="http://www.w3.org/1999/xlink" width="200" height="200"><defs><style type="text/css"></style></defs><path d="M714.24 1024c-64 0-128-23.04-168.96-66.56-2.56-2.56-5.12-5.12-5.12-5.12-7.68 5.12-17.92 7.68-28.16 2.56-12.8-5.12-20.48-2.56-40.96 12.8-7.68 5.12-12.8 10.24-23.04 15.36-69.12 43.52-151.04 51.2-232.96 20.48C192 995.84 166.4 972.8 163.84 947.2c-5.12-25.6 20.48-56.32 40.96-66.56 20.48-12.8 40.96-20.48 61.44-30.72-33.28-38.4-53.76-81.92-64-130.56l-56.32 61.44c-5.12 5.12-12.8 10.24-20.48 7.68-7.68 0-15.36-2.56-20.48-10.24C51.2 714.24 71.68 614.4 166.4 486.4c-5.12-10.24-10.24-20.48-10.24-33.28 0-25.6 2.56-53.76 17.92-69.12 7.68-7.68 10.24-12.8 7.68-28.16C171.52 168.96 289.28 25.6 478.72 2.56c171.52-20.48 332.8 102.4 363.52 276.48 2.56 15.36 2.56 33.28 2.56 48.64 0 5.12 0 10.24 0 15.36 0 5.12 0 10.24 0 12.8 0 17.92 0 20.48 7.68 28.16 12.8 7.68 20.48 23.04 20.48 38.4 2.56 17.92-5.12 38.4-15.36 56.32l7.68 12.8c12.8 20.48 28.16 43.52 40.96 64 33.28 53.76 43.52 117.76 30.72 186.88-5.12 30.72-20.48 40.96-33.28 43.52-10.24 2.56-28.16 2.56-48.64-20.48-12.8-12.8-23.04-28.16-33.28-43.52-5.12 20.48-10.24 38.4-20.48 56.32-12.8 25.6-28.16 46.08-43.52 69.12 0 0 0 0 0 2.56 17.92 7.68 35.84 15.36 53.76 25.6 35.84 23.04 43.52 46.08 43.52 64 0 17.92-10.24 40.96-48.64 61.44C783.36 1016.32 750.08 1024 714.24 1024zM540.16 898.56c20.48 0 35.84 15.36 40.96 23.04 46.08 51.2 145.92 66.56 204.8 33.28 17.92-10.24 20.48-17.92 20.48-17.92 0 0-2.56-7.68-17.92-17.92-15.36-10.24-35.84-17.92-51.2-25.6-7.68-2.56-15.36-7.68-23.04-10.24-7.68-2.56-12.8-10.24-12.8-15.36-2.56-7.68 0-15.36 2.56-20.48 5.12-10.24 12.8-17.92 20.48-28.16 15.36-20.48 28.16-40.96 38.4-61.44 10.24-20.48 15.36-43.52 23.04-66.56 2.56-10.24 5.12-23.04 10.24-33.28 2.56-10.24 10.24-15.36 20.48-17.92 10.24-2.56 20.48 2.56 25.6 10.24 7.68 10.24 12.8 17.92 20.48 28.16 12.8 17.92 25.6 33.28 38.4 48.64 10.24-53.76 0-99.84-25.6-143.36-12.8-20.48-28.16-43.52-40.96-64l-17.92-28.16c-7.68-10.24-5.12-23.04 2.56-30.72 12.8-12.8 15.36-30.72 12.8-35.84-30.72-20.48-30.72-51.2-30.72-69.12 0-2.56 0-7.68 0-10.24 0-5.12 0-10.24 0-15.36 0-15.36 0-28.16-2.56-40.96-25.6-145.92-161.28-250.88-307.2-232.96C325.12 74.24 225.28 194.56 235.52 353.28c2.56 20.48 0 43.52-23.04 66.56 0 0-5.12 7.68-5.12 33.28 0 2.56 2.56 7.68 5.12 12.8 2.56 5.12 5.12 7.68 5.12 12.8 2.56 7.68 2.56 17.92-2.56 25.6-69.12 89.6-97.28 163.84-87.04 215.04l66.56-74.24C204.8 637.44 215.04 634.88 225.28 640c10.24 2.56 15.36 12.8 17.92 23.04 2.56 71.68 30.72 130.56 81.92 179.2 5.12 5.12 10.24 15.36 7.68 23.04-2.56 7.68-7.68 15.36-15.36 17.92-10.24 5.12-20.48 7.68-28.16 12.8-20.48 10.24-40.96 17.92-58.88 28.16-5.12 2.56-12.8 12.8-15.36 15.36 2.56 5.12 12.8 12.8 17.92 15.36 69.12 25.6 130.56 20.48 189.44-15.36 5.12-2.56 10.24-7.68 17.92-12.8 17.92-15.36 46.08-35.84 84.48-25.6C527.36 901.12 535.04 898.56 540.16 898.56zM512 908.8C512 908.8 512 908.8 512 908.8 512 908.8 512 908.8 512 908.8zM532.48 906.24C532.48 906.24 532.48 906.24 532.48 906.24 532.48 906.24 532.48 906.24 532.48 906.24z" p-id="2019"></path></svg>